<svg xmlns="http://www.w3.org/2000/svg" width="35" height="35" viewBox="0 0 499 624.625"><switch><g><circle cx="249.5" cy="249.8" r="57.8"/><path d="M249.5 220c16.5 0 29.8 13.4 29.8 29.8 0 16.5-13.4 29.8-29.8 29.8-16.5 0-29.8-13.4-29.8-29.8s13.4-29.8 29.8-29.8m0-14c-24.2 0-43.8 19.6-43.8 43.8 0 24.2 19.6 43.8 43.8 43.8 24.2 0 43.8-19.6 43.8-43.8.1-24.2-19.6-43.8-43.8-43.8z"/><path d="M249.5 154c42.9 0 79.2 28.2 91.4 67h156.8C483.4 96.6 377.7 0 249.5 0S15.7 96.6 1.3 221h156.8c12.2-38.8 48.5-67 91.4-67zM479.3 280.7c-6.9 52.2-31.3 100.2-69.9 137-43.3 41.3-100.1 64-160 64s-116.7-22.7-160-64c-38.5-36.7-62.9-84.8-69.9-137h120.2c5.9 21 17.8 40 34.3 54.6 20.8 18.3 47.5 28.4 75.3 28.4s54.5-10.1 75.3-28.4c16.6-14.6 28.4-33.6 34.3-54.6h120.4m19.7-18H344.5c-6.3 46.9-46.4 83-95 83s-88.7-36.1-95-83H0c6.7 132 115.8 237 249.5 237s242.9-105 249.5-237z"/></g></switch></svg>
